
<svg xmlns="http://www.w3.org/2000/svg" viewBox="0 0 345.16 56.92"><defs><style>.cls-1{fill:#4576bb;}.cls-2{fill:#0856a7;}</style></defs><title>Asset 1</title><g id="Layer_2" data-name="Layer 2"><g id="Layer_1-2" data-name="Layer 1"><path class="cls-1" d="M69.13,49.4V8.15a5.72,5.72,0,0,1,5.72-5.72h0a6.29,6.29,0,0,1,6.29,6.29V55.2a.89.89,0,0,1-.89.89H75.82A6.7,6.7,0,0,1,69.13,49.4Zm9.27,5.8V46.49a.89.89,0,0,1,.89-.89h22a3.64,3.64,0,0,1,3.64,3.64v4a2.83,2.83,0,0,1-2.83,2.83H79.29A.89.89,0,0,1,78.4,55.2Z"/><path class="cls-1" d="M116.63,14.14a6,6,0,0,1-4.48-1.9,6.35,6.35,0,0,1-1.83-4.56,6.16,6.16,0,0,1,1.83-4.56,6.07,6.07,0,0,1,4.48-1.83,5.89,5.89,0,0,1,4.52,1.83,6.39,6.39,0,0,1,1.71,4.56,6.59,6.59,0,0,1-1.71,4.56A5.8,5.8,0,0,1,116.63,14.14ZM110.78,53V22.83a3.68,3.68,0,0,1,3.68-3.68h4.31a3.71,3.71,0,0,1,3.71,3.71v30a3.24,3.24,0,0,1-3.23,3.24H113.9A3.13,3.13,0,0,1,110.78,53Z"/><path class="cls-1" d="M127.12,26.72V21.6a2.45,2.45,0,0,1,2.45-2.45h25.64a2.38,2.38,0,0,1,2.38,2.38v5a2.54,2.54,0,0,1-2.54,2.54H129.51A2.39,2.39,0,0,1,127.12,26.72Zm10.32,29.37A2.11,2.11,0,0,1,135.33,54V16a16.68,16.68,0,0,1,2-8.17A14.63,14.63,0,0,1,143,2.13,17.14,17.14,0,0,1,151.67,0a16,16,0,0,1,6.65,1.29,18,18,0,0,1,3.05,1.77,2.22,2.22,0,0,1,.26,3.34l-4,4a2.92,2.92,0,0,1-3.3.6l0,0a5.28,5.28,0,0,0-2.21-.42,5,5,0,0,0-3.76,1.37A5.11,5.11,0,0,0,147,15.66v38a2.48,2.48,0,0,1-2.47,2.47Z"/><path class="cls-1" d="M180.32,56.92a22.22,22.22,0,0,1-10.64-2.47,18.44,18.44,0,0,1-7.3-6.87,19.09,19.09,0,0,1-2.66-10,18.93,18.93,0,0,1,2.59-9.84,18.66,18.66,0,0,1,7.06-6.88,20.37,20.37,0,0,1,10.11-2.5,19.5,19.5,0,0,1,9.73,2.35,17.37,17.37,0,0,1,6.61,6.54,18.71,18.71,0,0,1,2.43,9.57,20,20,0,0,1-.11,2.17s0,.08,0,.13a2.7,2.7,0,0,1-2.67,2.35l-29.58.14v-8l26.75-.16-5,3.42a14,14,0,0,0-1-5.2,7.11,7.11,0,0,0-2.7-3.23,7.81,7.81,0,0,0-4.3-1.14,8.64,8.64,0,0,0-4.75,1.29,8.53,8.53,0,0,0-3.11,3.57,12.41,12.41,0,0,0-1.1,5.47,12.34,12.34,0,0,0,1.17,5.55,8.37,8.37,0,0,0,3.35,3.61A10,10,0,0,0,180.32,48a12.21,12.21,0,0,0,4.86-1,10.72,10.72,0,0,0,2.41-1.45,2.29,2.29,0,0,1,3,.16l3.13,3.1a2.47,2.47,0,0,1-.09,3.61,16.52,16.52,0,0,1-4.77,2.94A23,23,0,0,1,180.32,56.92Z"/><path class="cls-1" d="M204.79,51.76V7.84a5.41,5.41,0,0,1,5.4-5.41H212a4.76,4.76,0,0,1,4.76,4.76V54.53a1.56,1.56,0,0,1-1.56,1.56h-6.12A4.33,4.33,0,0,1,204.79,51.76Zm9.27,2.77V47.16a1.56,1.56,0,0,1,1.56-1.56h21.09a3.88,3.88,0,0,1,3.87,3.88v2.63a4,4,0,0,1-4,4h-21A1.56,1.56,0,0,1,214.06,54.53Z"/><path class="cls-1" d="M252.29,14.14a6,6,0,0,1-4.49-1.9A6.38,6.38,0,0,1,246,7.68a6.19,6.19,0,0,1,1.82-4.56,6.09,6.09,0,0,1,4.49-1.83,5.9,5.9,0,0,1,4.52,1.83,6.39,6.39,0,0,1,1.71,4.56,6.59,6.59,0,0,1-1.71,4.56A5.81,5.81,0,0,1,252.29,14.14ZM246.44,52V24a4.88,4.88,0,0,1,4.88-4.89h2A4.87,4.87,0,0,1,258.14,24V51.91A4.18,4.18,0,0,1,254,56.09h-3.41A4.11,4.11,0,0,1,246.44,52Z"/><path class="cls-1" d="M266.19,51.85V23.79a4.64,4.64,0,0,1,4.64-4.64h2.54a4.53,4.53,0,0,1,4.53,4.53v28.8a3.61,3.61,0,0,1-3.61,3.61h-3.86A4.24,4.24,0,0,1,266.19,51.85Zm28.55,4.24A4.07,4.07,0,0,1,290.67,52V35a6.14,6.14,0,0,0-1.83-4.6,6.24,6.24,0,0,0-4.56-1.79,6.71,6.71,0,0,0-3.27.8,5.82,5.82,0,0,0-2.27,2.24A6.54,6.54,0,0,0,277.9,35l-4.49-2.21a14.64,14.64,0,0,1,1.94-7.6,13.33,13.33,0,0,1,5.32-5.05,16.13,16.13,0,0,1,7.64-1.79,13.75,13.75,0,0,1,12.24,7,14.14,14.14,0,0,1,1.82,7V52.39a3.7,3.7,0,0,1-3.7,3.7Z"/><path class="cls-1" d="M309.67,52.11V4.86A3.94,3.94,0,0,1,313.61.91h4.08a3.69,3.69,0,0,1,3.68,3.69v47a4.46,4.46,0,0,1-4.46,4.46h-3.26A4,4,0,0,1,309.67,52.11Zm22.43,2.07L320.54,36.94l11.62-16.19a3.83,3.83,0,0,1,3.11-1.6h7.38A1.79,1.79,0,0,1,344.07,22L330.79,39.22l.46-4.94,13.51,18.55a2.05,2.05,0,0,1-1.66,3.26h-7.43A4.31,4.31,0,0,1,332.1,54.18Z"/><path class="cls-2" d="M8.75,33.62V23.45H46.07V33.62ZM22.2,9H32.62V48H22.2Z"/><path class="cls-1" d="M27.41,1.09A27.41,27.41,0,1,0,54.82,28.5,27.41,27.41,0,0,0,27.41,1.09Zm0,44.74A17.34,17.34,0,1,1,44.74,28.5,17.33,17.33,0,0,1,27.41,45.83Z"/></g></g></svg>